<?xml version="1.0" encoding="utf-8"?>
<!-- Generator: Adobe Illustrator 24.1.2, SVG Export Plug-In . SVG Version: 6.00 Build 0)  -->
<svg version="1.1" id="Default" xmlns="http://www.w3.org/2000/svg" xmlns:xlink="http://www.w3.org/1999/xlink" x="0px" y="0px"
	 viewBox="0 0 1050 490" style="enable-background:new 0 0 1050 490;" xml:space="preserve">
<style type="text/css">
	.st0{fill:#3DA1DA;}
	.st1{fill:#8EC958;}
	.st2{fill:#69B745;}
</style>
<g>
	<g>
		<path class="st0" d="M167.8,209.8c2.8-3.2,6.5-4.8,11.1-4.8c2,0,3.9,0.2,5.6,0.7c1.7,0.4,3.4,0.9,5,1.5l9.9-21.8
			c-2.5-1.2-5.3-2-8.5-2.4c-3.3-0.5-6.7-0.7-10-0.7c-13.5,0-24.1,4.2-31.6,12.7c-6.6,7.4-9.8,16.8-9.8,28.1v19h-15.7v22.7h15.7V370
			h24V264.7h24V242h-24v-20.5C163.4,217.1,164.9,213.1,167.8,209.8z"/>
		<path class="st0" d="M298.6,230.7c-11.4-10-23.9-15.1-37.7-15.1c-18.6,0-33.7,6.2-45.3,18.5c-10.8,11.4-16.1,25-16.1,40.8
			c0,16,5.4,29.7,16.1,41c11.6,12.2,26.8,18.3,45.3,18.3c9.9,0,19.3-2.5,28.3-7.4c9-4.8,16.9-11.5,23.6-20.1l-20.3-11.3
			c-8.7,11.7-19.5,17.5-32.2,17.5c-8.9,0-16.8-2.8-23.6-8.5c-7-5.7-10.4-12.6-10.4-20.9h92.6v-4.6
			C318.8,258.8,312.1,242.8,298.6,230.7z M226.2,263.4c1.9-8.3,5.7-14.7,11.5-19.3c5.6-4.5,12.3-6.8,20.1-6.8s14.7,2.2,20.5,6.5
			c5.6,4.5,9.8,11,12.4,19.6H226.2z"/>
		<path class="st0" d="M435.5,230.7c-11.3-10-23.9-15.1-37.7-15.1c-18.6,0-33.7,6.2-45.3,18.5c-10.8,11.4-16.1,25-16.1,40.8
			c0,16,5.4,29.7,16.1,41c11.6,12.2,26.8,18.3,45.3,18.3c9.9,0,19.3-2.5,28.3-7.4c9-4.8,16.9-11.5,23.6-20.1l-20.3-11.3
			c-8.7,11.7-19.5,17.5-32.3,17.5c-8.9,0-16.8-2.8-23.6-8.5c-7-5.7-10.4-12.6-10.4-20.9h92.6v-4.6
			C455.7,258.8,448.9,242.8,435.5,230.7z M363.1,263.4c1.9-8.3,5.7-14.7,11.5-19.3c5.6-4.5,12.3-6.8,20.1-6.8
			c7.8,0,14.7,2.2,20.5,6.5c5.6,4.5,9.8,11,12.4,19.6H363.1z"/>
		<path class="st0" d="M565.8,232.5c-3.4-5.1-8.1-9.2-14.2-12.2c-6.2-3.1-13.4-4.6-21.3-4.6c-17.3,0-31.7,6.4-43.2,19.2
			c-10.5,11.6-15.7,25-15.7,40.1c0,15.6,5.1,29.1,15.3,40.6c11.1,12.5,25.2,18.7,42.5,18.7c7.7,0,14.8-1.5,21.4-4.6
			c6.4-2.9,11.6-7,15.7-12.2v13.7h23.9V185.4h-23.9L565.8,232.5z M556.9,300.7c-7,7.1-15.2,10.6-24.6,10.6
			c-9.8,0-18.1-3.5-25.1-10.6c-7-7.1-10.5-15.7-10.5-25.8c0-10.1,3.5-18.8,10.5-25.9c6.8-7,15.2-10.5,25.1-10.5
			c9.6,0,17.8,3.5,24.6,10.7c6.8,7.1,10.3,15.7,10.3,25.7C567.1,285.1,563.7,293.7,556.9,300.7z"/>
		<polygon class="st0" points="614.2,218.7 614.2,241.7 663.5,241.7 609.6,331.2 702.3,331.2 702.3,308.5 649.5,308.5 703.5,218.7 
					"/>
		<path class="st0" d="M809.1,232.5c-3.4-5.1-8.1-9.2-14.2-12.2c-6.2-3.1-13.3-4.6-21.3-4.6c-17.3,0-31.7,6.4-43.2,19.2
			c-10.5,11.6-15.7,25-15.7,40.1c0,15.6,5.1,29.1,15.3,40.6c11,12.5,25.2,18.7,42.5,18.7c7.7,0,14.8-1.5,21.3-4.6
			c6.4-2.9,11.6-7,15.7-12.2v13.7h24V218.7h-24L809.1,232.5z M800.1,300.7c-7,7.1-15.2,10.6-24.6,10.6c-9.8,0-18.1-3.5-25.1-10.6
			s-10.5-15.7-10.5-25.8c0-10.1,3.5-18.8,10.5-25.9c6.8-7,15.2-10.5,25.1-10.5c9.6,0,17.8,3.5,24.6,10.7
			c6.8,7.1,10.3,15.7,10.3,25.7C810.4,285.1,807,293.7,800.1,300.7z"/>
		<rect x="864.4" y="218.7" class="st0" width="24" height="112.5"/>
	</g>
	<path class="st1" d="M926.3,120l-8.1,74.2l-18.7-17.4c-2.9,1.7-44.9,25.9-75.4,1.7c0,0,23.9,7.1,49.1-26.2l-20.3-18.9L926.3,120z"
		/>
	<path class="st2" d="M926.3,120l-8.1,74.2l-18.7-17.4c-2.9,1.7-44.9,25.9-75.4,1.7c0,0,23.9,7.1,49.1-26.2l-20.3-18.9L926.3,120z"
		/>
</g>
</svg>
